<?xml version="1.0" encoding="UTF-8" standalone="no"?>
<!-- Created with Inkscape (http://www.inkscape.org/) -->

<svg
   xmlns:dc="http://purl.org/dc/elements/1.1/"
   xmlns:cc="http://creativecommons.org/ns#"
   xmlns:rdf="http://www.w3.org/1999/02/22-rdf-syntax-ns#"
   xmlns:svg="http://www.w3.org/2000/svg"
   xmlns="http://www.w3.org/2000/svg"
   xmlns:sodipodi="http://sodipodi.sourceforge.net/DTD/sodipodi-0.dtd"
   xmlns:inkscape="http://www.inkscape.org/namespaces/inkscape"
   width="744.09448819"
   height="1052.3622047"
   id="svg2"
   version="1.1"
   inkscape:version="0.48.3.1 r9886"
   sodipodi:docname="icons.svg">
  <defs
     id="defs4">
    <marker
       inkscape:stockid="DotS"
       orient="auto"
       refY="0.0"
       refX="0.0"
       id="DotS"
       style="overflow:visible">
      <path
         id="path3828"
         d="M -2.5,-1.0 C -2.5,1.7600000 -4.7400000,4.0 -7.5,4.0 C -10.260000,4.0 -12.5,1.7600000 -12.5,-1.0 C -12.5,-3.7600000 -10.260000,-6.0 -7.5,-6.0 C -4.7400000,-6.0 -2.5,-3.7600000 -2.5,-1.0 z "
         style="fill-rule:evenodd;stroke:#000000;stroke-width:1.0pt"
         transform="scale(0.2) translate(7.4, 1)" />
    </marker>
    <marker
       inkscape:stockid="TriangleInS"
       orient="auto"
       refY="0.0"
       refX="0.0"
       id="TriangleInS"
       style="overflow:visible">
      <path
         id="path3900"
         d="M 5.77,0.0 L -2.88,5.0 L -2.88,-5.0 L 5.77,0.0 z "
         style="fill-rule:evenodd;stroke:#000000;stroke-width:1.0pt"
         transform="scale(-0.2)" />
    </marker>
    <marker
       inkscape:stockid="TriangleOutS"
       orient="auto"
       refY="0.0"
       refX="0.0"
       id="TriangleOutS"
       style="overflow:visible">
      <path
         id="path3909"
         d="M 5.77,0.0 L -2.88,5.0 L -2.88,-5.0 L 5.77,0.0 z "
         style="fill-rule:evenodd;stroke:#000000;stroke-width:1.0pt"
         transform="scale(0.2)" />
    </marker>
    <marker
       inkscape:stockid="Arrow2Sstart"
       orient="auto"
       refY="0.0"
       refX="0.0"
       id="Arrow2Sstart"
       style="overflow:visible">
      <path
         id="path3791"
         style="fill-rule:evenodd;stroke-width:0.62500000;stroke-linejoin:round"
         d="M 8.7185878,4.0337352 L -2.2072895,0.016013256 L 8.7185884,-4.0017078 C 6.9730900,-1.6296469 6.9831476,1.6157441 8.7185878,4.0337352 z "
         transform="scale(0.3) translate(-2.3,0)" />
    </marker>
    <marker
       inkscape:stockid="Arrow2Send"
       orient="auto"
       refY="0.0"
       refX="0.0"
       id="Arrow2Send"
       style="overflow:visible;">
      <path
         id="path3794"
         style="fill-rule:evenodd;stroke-width:0.62500000;stroke-linejoin:round;"
         d="M 8.7185878,4.0337352 L -2.2072895,0.016013256 L 8.7185884,-4.0017078 C 6.9730900,-1.6296469 6.9831476,1.6157441 8.7185878,4.0337352 z "
         transform="scale(0.3) rotate(180) translate(-2.3,0)" />
    </marker>
    <marker
       inkscape:stockid="Arrow1Sstart"
       orient="auto"
       refY="0.0"
       refX="0.0"
       id="Arrow1Sstart"
       style="overflow:visible">
      <path
         id="path3773"
         d="M 0.0,0.0 L 5.0,-5.0 L -12.5,0.0 L 5.0,5.0 L 0.0,0.0 z "
         style="fill-rule:evenodd;stroke:#000000;stroke-width:1.0pt"
         transform="scale(0.2) translate(6,0)" />
    </marker>
    <marker
       inkscape:stockid="Arrow1Send"
       orient="auto"
       refY="0.0"
       refX="0.0"
       id="Arrow1Send"
       style="overflow:visible;">
      <path
         id="path3776"
         d="M 0.0,0.0 L 5.0,-5.0 L -12.5,0.0 L 5.0,5.0 L 0.0,0.0 z "
         style="fill-rule:evenodd;stroke:#000000;stroke-width:1.0pt;"
         transform="scale(0.2) rotate(180) translate(6,0)" />
    </marker>
    <marker
       inkscape:stockid="Arrow1Mstart"
       orient="auto"
       refY="0.0"
       refX="0.0"
       id="Arrow1Mstart"
       style="overflow:visible">
      <path
         id="path3767"
         d="M 0.0,0.0 L 5.0,-5.0 L -12.5,0.0 L 5.0,5.0 L 0.0,0.0 z "
         style="fill-rule:evenodd;stroke:#000000;stroke-width:1.0pt"
         transform="scale(0.4) translate(10,0)" />
    </marker>
    <marker
       inkscape:stockid="Arrow1Lstart"
       orient="auto"
       refY="0.0"
       refX="0.0"
       id="Arrow1Lstart"
       style="overflow:visible">
      <path
         id="path3761"
         d="M 0.0,0.0 L 5.0,-5.0 L -12.5,0.0 L 5.0,5.0 L 0.0,0.0 z "
         style="fill-rule:evenodd;stroke:#000000;stroke-width:1.0pt"
         transform="scale(0.8) translate(12.5,0)" />
    </marker>
    <marker
       inkscape:stockid="TriangleInS"
       orient="auto"
       refY="0"
       refX="0"
       id="TriangleInS-6"
       style="overflow:visible">
      <path
         inkscape:connector-curvature="0"
         id="path3900-0"
         d="m 5.77,0 -8.65,5 0,-10 8.65,5 z"
         style="fill-rule:evenodd;stroke:#000000;stroke-width:1pt"
         transform="scale(-0.2,-0.2)" />
    </marker>
    <marker
       inkscape:stockid="TriangleOutS"
       orient="auto"
       refY="0"
       refX="0"
       id="TriangleOutS-4"
       style="overflow:visible">
      <path
         inkscape:connector-curvature="0"
         id="path3909-7"
         d="m 5.77,0 -8.65,5 0,-10 8.65,5 z"
         style="fill-rule:evenodd;stroke:#000000;stroke-width:1pt"
         transform="scale(0.2,0.2)" />
    </marker>
    <marker
       inkscape:stockid="TriangleInS"
       orient="auto"
       refY="0"
       refX="0"
       id="TriangleInS-2"
       style="overflow:visible">
      <path
         inkscape:connector-curvature="0"
         id="path3900-3"
         d="m 5.77,0 -8.65,5 0,-10 8.65,5 z"
         style="fill-rule:evenodd;stroke:#000000;stroke-width:1pt"
         transform="scale(-0.2,-0.2)" />
    </marker>
    <marker
       inkscape:stockid="TriangleOutS"
       orient="auto"
       refY="0"
       refX="0"
       id="TriangleOutS-3"
       style="overflow:visible">
      <path
         inkscape:connector-curvature="0"
         id="path3909-4"
         d="m 5.77,0 -8.65,5 0,-10 8.65,5 z"
         style="fill-rule:evenodd;stroke:#000000;stroke-width:1pt"
         transform="scale(0.2,0.2)" />
    </marker>
    <marker
       inkscape:stockid="TriangleInS"
       orient="auto"
       refY="0"
       refX="0"
       id="marker6195"
       style="overflow:visible">
      <path
         inkscape:connector-curvature="0"
         id="path6197"
         d="m 5.77,0 -8.65,5 0,-10 8.65,5 z"
         style="fill-rule:evenodd;stroke:#000000;stroke-width:1pt"
         transform="scale(-0.2,-0.2)" />
    </marker>
    <marker
       inkscape:stockid="TriangleOutS"
       orient="auto"
       refY="0"
       refX="0"
       id="marker6199"
       style="overflow:visible">
      <path
         inkscape:connector-curvature="0"
         id="path6201"
         d="m 5.77,0 -8.65,5 0,-10 8.65,5 z"
         style="fill-rule:evenodd;stroke:#000000;stroke-width:1pt"
         transform="scale(0.2,0.2)" />
    </marker>
    <marker
       inkscape:stockid="DotS"
       orient="auto"
       refY="0"
       refX="0"
       id="DotS-1"
       style="overflow:visible">
      <path
         inkscape:connector-curvature="0"
         id="path3828-5"
         d="m -2.5,-1 c 0,2.76 -2.24,5 -5,5 -2.76,0 -5,-2.24 -5,-5 0,-2.76 2.24,-5 5,-5 2.76,0 5,2.24 5,5 z"
         style="fill-rule:evenodd;stroke:#000000;stroke-width:1pt"
         transform="matrix(0.2,0,0,0.2,1.48,0.2)" />
    </marker>
  </defs>
  <sodipodi:namedview
     id="base"
     pagecolor="#ffffff"
     bordercolor="#666666"
     borderopacity="1.0"
     inkscape:pageopacity="0.0"
     inkscape:pageshadow="2"
     inkscape:zoom="6"
     inkscape:cx="427.31724"
     inkscape:cy="521.15146"
     inkscape:document-units="px"
     inkscape:current-layer="layer1"
     showgrid="false"
     inkscape:window-width="1356"
     inkscape:window-height="833"
     inkscape:window-x="503"
     inkscape:window-y="106"
     inkscape:window-maximized="0">
    <inkscape:grid
       type="xygrid"
       id="grid6115" />
  </sodipodi:namedview>
  <metadata
     id="metadata7">
    <rdf:RDF>
      <cc:Work
         rdf:about="">
        <dc:format>image/svg+xml</dc:format>
        <dc:type
           rdf:resource="http://purl.org/dc/dcmitype/StillImage" />
        <dc:title />
      </cc:Work>
    </rdf:RDF>
  </metadata>
  <g
     inkscape:label="Layer 1"
     inkscape:groupmode="layer"
     id="layer1">
    <rect
       style="color:#000000;fill:none;fill-opacity:0.99215686000000003;fill-rule:nonzero;stroke:none;stroke-width:0.50000000000000000;marker:none;visibility:visible;display:inline;overflow:visible;enable-background:accumulate"
       id="rectangle"
       width="12"
       height="12"
       x="378"
       y="521.36218"
       inkscape:label="#rect9526-9" />
    <rect
       style="color:#000000;fill:none;fill-opacity:0.99215686000000003;fill-rule:nonzero;stroke:none;stroke-width:0.50000000000000000;stroke-linecap:square;stroke-linejoin:round;stroke-miterlimit:4;stroke-opacity:1;stroke-dasharray:none;stroke-dashoffset:3.79500007999999989;marker:none;visibility:visible;display:inline;overflow:visible;enable-background:accumulate"
       id="select"
       width="12"
       height="12"
       x="364"
       y="521.36218"
       inkscape:label="#rect9526" />
    <path
       style="font-size:medium;font-style:normal;font-variant:normal;font-weight:normal;font-stretch:normal;text-indent:0;text-align:start;text-decoration:none;line-height:normal;letter-spacing:normal;word-spacing:normal;text-transform:none;direction:ltr;block-progression:tb;writing-mode:lr-tb;text-anchor:start;baseline-shift:baseline;color:#000000;fill:#252525;fill-opacity:1;stroke:none;stroke-width:0.29999999999999999;stroke-miterlimit:4;stroke-dasharray:none;marker:none;visibility:visible;display:inline;overflow:visible;enable-background:accumulate;font-family:Sans;-inkscape-font-specification:Sans;stroke-linejoin:round"
       d="M 365.09375 522.4375 L 365.09375 522.6875 L 365.09375 522.96875 L 365.09375 523.53125 L 365.09375 523.78125 L 365.59375 523.78125 L 365.59375 523.53125 L 365.59375 522.96875 L 366.40625 522.96875 L 366.65625 522.96875 L 366.65625 522.4375 L 366.40625 522.4375 L 365.59375 522.4375 L 365.34375 522.4375 L 365.09375 522.4375 z M 367.6875 522.4375 L 367.6875 522.96875 L 367.9375 522.96875 L 369.5 522.96875 L 369.75 522.96875 L 369.75 522.4375 L 369.5 522.4375 L 367.9375 522.4375 L 367.6875 522.4375 z M 370.78125 522.4375 L 370.78125 522.96875 L 371.03125 522.96875 L 372.5625 522.96875 L 372.8125 522.96875 L 372.8125 522.4375 L 372.5625 522.4375 L 371.03125 522.4375 L 370.78125 522.4375 z M 373.84375 522.4375 L 373.84375 522.96875 L 374.125 522.96875 L 374.40625 522.96875 L 374.40625 523.6875 L 374.40625 523.9375 L 374.90625 523.9375 L 374.90625 523.6875 L 374.90625 522.6875 L 374.65625 522.4375 L 374.125 522.4375 L 373.84375 522.4375 z M 370 523.53125 L 369 525.25 L 369.5 525.25 L 369.5 526.875 L 367.90625 526.875 L 367.90625 526.375 L 366.1875 527.375 L 367.90625 528.375 L 367.90625 527.875 L 369.5 527.875 L 369.5 529.46875 L 369 529.46875 L 370 531.1875 L 371 529.46875 L 370.5 529.46875 L 370.5 527.875 L 372.09375 527.875 L 372.09375 528.375 L 373.8125 527.375 L 372.09375 526.375 L 372.09375 526.875 L 370.5 526.875 L 370.5 525.25 L 371 525.25 L 370 523.53125 z M 365.09375 524.8125 L 365.09375 525.0625 L 365.09375 526.625 L 365.09375 526.875 L 365.59375 526.875 L 365.59375 526.625 L 365.59375 525.0625 L 365.59375 524.8125 L 365.09375 524.8125 z M 374.40625 524.96875 L 374.40625 525.21875 L 374.40625 526.75 L 374.40625 527.03125 L 374.90625 527.03125 L 374.90625 526.75 L 374.90625 525.21875 L 374.90625 524.96875 L 374.40625 524.96875 z M 365.09375 527.90625 L 365.09375 528.15625 L 365.09375 529.6875 L 365.09375 529.9375 L 365.59375 529.9375 L 365.59375 529.6875 L 365.59375 528.15625 L 365.59375 527.90625 L 365.09375 527.90625 z M 374.40625 528.03125 L 374.40625 528.3125 L 374.40625 529.84375 L 374.40625 530.09375 L 374.90625 530.09375 L 374.90625 529.84375 L 374.90625 528.3125 L 374.90625 528.03125 L 374.40625 528.03125 z M 365.09375 530.96875 L 365.09375 531.21875 L 365.09375 532.03125 L 365.34375 532.28125 L 366.0625 532.28125 L 366.34375 532.28125 L 366.34375 531.78125 L 366.0625 531.78125 L 365.59375 531.78125 L 365.59375 531.21875 L 365.59375 530.96875 L 365.09375 530.96875 z M 374.40625 531.125 L 374.40625 531.375 L 374.40625 531.78125 L 373.78125 531.78125 L 373.53125 531.78125 L 373.53125 532.28125 L 373.78125 532.28125 L 374.65625 532.28125 L 374.90625 532.03125 L 374.90625 531.375 L 374.90625 531.125 L 374.40625 531.125 z M 367.375 531.78125 L 367.375 532.28125 L 367.625 532.28125 L 369.15625 532.28125 L 369.40625 532.28125 L 369.40625 531.78125 L 369.15625 531.78125 L 367.625 531.78125 L 367.375 531.78125 z M 370.4375 531.78125 L 370.4375 532.28125 L 370.6875 532.28125 L 372.25 532.28125 L 372.5 532.28125 L 372.5 531.78125 L 372.25 531.78125 L 370.6875 531.78125 L 370.4375 531.78125 z "
       id="path2987" />
    <path
       style="fill:none;stroke:#000000;stroke-width:0.80000001;stroke-linecap:butt;stroke-linejoin:miter;stroke-miterlimit:4;stroke-opacity:1;stroke-dasharray:none;marker-start:url(#DotS);marker-end:url(#marker6199)"
       d="m 395.33333,543.69552 6,0 0,-4"
       id="path7134"
       inkscape:connector-curvature="0" />
    <path
       style="fill:none;stroke:#000000;stroke-width:0.80000001;stroke-linecap:butt;stroke-linejoin:miter;stroke-miterlimit:4;stroke-opacity:1;stroke-dasharray:none;marker-start:url(#DotS);marker-end:url(#marker6199)"
       d="m 395.33333,538.69552 1.33333,0 0,-2.66667 3.33334,0 0,1.33333 1.33333,0"
       id="path7149"
       inkscape:connector-curvature="0"
       sodipodi:nodetypes="cccccc" />
    <path
       style="fill:none;stroke:#000000;stroke-width:0.5;stroke-linecap:butt;stroke-linejoin:miter;stroke-miterlimit:4;stroke-opacity:1;stroke-dasharray:none"
       d="m 397.6875,537.04968 1.33333,0 0,1.33334 -1.33333,0 0,-1.33334"
       id="path7151"
       inkscape:connector-curvature="0" />
    <path
       style="font-size:medium;font-style:normal;font-variant:normal;font-weight:normal;font-stretch:normal;text-indent:0;text-align:start;text-decoration:none;line-height:normal;letter-spacing:normal;word-spacing:normal;text-transform:none;direction:ltr;block-progression:tb;writing-mode:lr-tb;text-anchor:start;baseline-shift:baseline;color:#000000;fill:#252525;fill-opacity:1;stroke:none;stroke-width:0.29999999999999999;stroke-miterlimit:4;stroke-dasharray:none;marker:none;visibility:visible;display:inline;overflow:visible;enable-background:accumulate;font-family:Sans;-inkscape-font-specification:Sans;stroke-linejoin:round"
       d="M 380.6875 523.0625 C 380.1355 523.0625 379.6875 523.5105 379.6875 524.0625 C 379.6875 524.45149 379.89418 524.80343 380.21875 524.96875 L 380.21875 530.65625 L 380.21875 531.15625 L 380.71875 531.15625 L 386.46875 531.15625 C 386.64055 531.45956 386.93925 531.65625 387.3125 531.65625 C 387.8645 531.65625 388.3125 531.20825 388.3125 530.65625 C 388.3125 530.26863 388.10395 529.94719 387.78125 529.78125 L 387.78125 524.0625 L 387.78125 523.5625 L 387.28125 523.5625 L 381.5 523.5625 C 381.32425 523.27519 381.04874 523.0625 380.6875 523.0625 z M 381.53125 524.5625 L 386.78125 524.5625 L 386.78125 529.84375 C 386.66233 529.92412 386.57504 530.03358 386.5 530.15625 L 381.21875 530.15625 L 381.21875 524.875 C 381.34363 524.78896 381.45622 524.69496 381.53125 524.5625 z "
       id="rect6161-6-0" />
    <rect
       style="color:#000000;fill:none;fill-opacity:0.99215686000000003;fill-rule:nonzero;stroke:none;stroke-width:0.50000000000000000;marker:none;visibility:visible;display:inline;overflow:visible;enable-background:accumulate"
       id="connector"
       width="12"
       height="12"
       x="392"
       y="521.36218"
       inkscape:label="#rect9526-9-3" />
    <path
       style="font-size:medium;font-style:normal;font-variant:normal;font-weight:normal;font-stretch:normal;text-indent:0;text-align:start;text-decoration:none;line-height:normal;letter-spacing:normal;word-spacing:normal;text-transform:none;direction:ltr;block-progression:tb;writing-mode:lr-tb;text-anchor:start;baseline-shift:baseline;color:#000000;fill:#252525;fill-opacity:1;stroke:none;stroke-width:0.29999999999999999;stroke-miterlimit:4;stroke-dasharray:none;marker:none;visibility:visible;display:inline;overflow:visible;enable-background:accumulate;font-family:Sans;-inkscape-font-specification:Sans;stroke-linejoin:round"
       d="M 400.875 524 L 400.875 524.5 L 397.9375 524.5 L 397.4375 524.5 L 397.4375 525 L 397.4375 529.25 L 395.25 529.25 C 395.0782 528.94669 394.74825 528.75 394.375 528.75 C 393.823 528.75 393.375 529.198 393.375 529.75 C 393.375 530.302 393.823 530.75 394.375 530.75 C 394.7325 530.75 395.04194 530.53238 395.21875 530.25 L 397.9375 530.25 L 398.4375 530.25 L 398.4375 529.75 L 398.4375 525.5 L 400.875 525.5 L 400.875 526 L 402.625 525 L 400.875 524 z "
       id="path7110" />
    <rect
       style="color:#000000;fill:none;fill-opacity:0.99215686000000003;fill-rule:nonzero;stroke:none;stroke-width:0.50000000000000000;marker:none;visibility:visible;display:inline;overflow:visible;enable-background:accumulate"
       id="fill"
       width="12"
       height="12"
       x="406"
       y="521.36218"
       inkscape:label="#rect9526-9-3-3" />
    <path
       style="fill:#252525;fill-opacity:1;stroke:none;stroke-width:0.29999999999999999;stroke-miterlimit:4;stroke-dasharray:none;stroke-linejoin:round"
       d="m 412.38248,523.43723 c -0.67263,0.035 -1.2447,0.37613 -1.53125,0.9375 -0.0676,0.13153 -0.0509,0.15869 -0.1875,0.8125 -0.076,0.36454 -0.15025,0.65225 -0.15625,0.65625 -0.007,0.004 -0.1007,0.0253 -0.21875,0.0312 -0.26065,0.0126 -0.52477,0.0308 -0.6875,0.0937 -0.2128,0.0824 -0.47265,0.32078 -0.59375,0.5 -0.0436,0.0646 -0.07,0.0975 -0.0937,0.21875 -0.0515,0.26413 -0.16894,0.0977 1.4375,2.34375 1.51845,2.12372 1.44809,2.00429 1.6875,2.125 0.0571,0.0287 0.1083,0.0565 0.125,0.0625 l 0,0.0312 c 0.0165,0.007 0.1092,0.019 0.1875,0.0312 0.17718,0.0264 0.36042,0.004 0.53125,-0.0625 0.0827,-0.0323 0.45757,-0.27574 1.25,-0.78125 1.25105,-0.79809 1.22982,-0.78392 1.375,-1.03125 0.0836,-0.1452 0.12185,-0.32752 0.0937,-0.5 -0.0404,-0.24918 -0.0499,-0.25988 -0.84375,-1.375 l -0.75,-1.03125 0.125,-0.65625 c 0.11674,-0.64494 0.138,-0.66182 0.125,-0.8125 -0.0473,-0.5489 -0.38462,-1.05495 -0.875,-1.34375 -0.2038,-0.11993 -0.35902,-0.17395 -0.59375,-0.21875 -0.19299,-0.0372 -0.24016,-0.0403 -0.40625,-0.0312 z m -0.125,0.46875 c 0.13655,-0.0174 0.29465,0.004 0.4375,0.0312 0.34963,0.0676 0.57626,0.20495 0.78125,0.46875 0.15758,0.20278 0.26225,0.40954 0.28125,0.65625 0.008,0.10212 -0.0157,0.19205 -0.0625,0.46875 -0.0518,0.30854 -0.037,0.33975 -0.0625,0.34375 -0.0204,0.003 -0.0765,-0.0366 -0.1875,-0.1875 -0.12669,-0.17216 -0.18195,-0.2403 -0.28125,-0.3125 -0.12182,-0.0886 -0.28031,-0.1639 -0.40625,-0.1875 -0.1386,-0.0259 -0.35373,-0.005 -0.5,0.0312 -0.13797,0.0344 -0.17077,0.0384 -0.65625,0.34375 -0.41118,0.25861 -0.49805,0.3185 -0.53125,0.3125 -0.0312,-0.006 -0.0605,-0.002 -0.0625,-0.0312 -0.004,-0.0218 0.0624,-0.29361 0.125,-0.59375 0.10472,-0.50186 0.10365,-0.55303 0.15625,-0.65625 0.19486,-0.38183 0.55911,-0.63518 0.96875,-0.6875 z m -2.8125,2.625 c 0.0303,-0.005 0.0903,-0.0118 0.125,0 0.29622,0.10043 0.676,0.64487 0.6875,0.96875 0.009,0.24226 -0.25102,0.25046 -0.5,0.0312 -0.22891,-0.20159 -0.4198,-0.54978 -0.4375,-0.78125 -0.008,-0.11433 0.0341,-0.20414 0.125,-0.21875 z m -0.59375,1 c -0.0599,0.0716 -0.26205,0.64373 -0.34375,1 -0.1114,0.486 -0.14655,0.72791 -0.0937,1.03125 0.0566,0.32515 0.16912,0.55274 0.3125,0.65625 0.0323,0.0227 0.0781,0.0307 0.125,0.0312 0.13508,0.002 0.2177,-0.0787 0.3125,-0.28125 0.13316,-0.28416 0.1807,-0.63709 0.125,-1.03125 -0.047,-0.33288 -0.17465,-0.81735 -0.3125,-1.1875 -0.0866,-0.23101 -0.087,-0.26405 -0.125,-0.21875 z"
       id="path10145"
       inkscape:connector-curvature="0" />
    <rect
       style="color:#000000;fill:none;fill-opacity:0.99215686000000003;fill-rule:nonzero;stroke:none;stroke-width:0.50000000000000000;marker:none;visibility:visible;display:inline;overflow:visible;enable-background:accumulate"
       id="pencil"
       width="12"
       height="12"
       x="420"
       y="521.36218"
       inkscape:label="#rect9526-9-3-3-2" />
    <path
       id="path9635"
       style="fill:#252525;fill-opacity:1;stroke:none;stroke-width:0.29999999999999999;stroke-miterlimit:4;stroke-dasharray:none;stroke-linejoin:round"
       d="m 427.86475,523.65528 c 0.18807,-0.14301 0.43007,-0.21638 0.64605,-0.19586 0.33208,0.032 0.60594,0.26766 0.69496,0.59915 0.0361,0.13421 0.0376,0.34959 0.004,0.48504 -0.0563,0.2234 0.0502,0.0852 -2.35664,3.05804 -1.23227,1.52202 -2.24649,2.76812 -2.2538,2.76911 -0.0164,0.003 -1.26145,-1.06713 -1.28307,-1.10181 2.24129,-2.80767 1.60801,-2.10579 4.5485,-5.61367 z m -4.82875,6.72678 c 0.0638,-0.37088 0.11678,-0.6756 0.11704,-0.6772 0.002,-0.023 0.10612,0.0608 0.53484,0.4304 0.27877,0.24041 0.50715,0.44316 0.50749,0.4506 7.4e-4,0.007 -0.009,0.0174 -0.0183,0.0223 -0.0333,0.0154 -1.20918,0.45992 -1.23089,0.4653 -0.0114,0.002 -0.0221,-9e-5 -0.0238,-0.007 -0.002,-0.007 0.0497,-0.31455 0.11353,-0.68546 z" />
    <rect
       style="color:#000000;fill:none;fill-opacity:0.99215686000000003;fill-rule:nonzero;stroke:none;stroke-width:0.50000000000000000;marker:none;visibility:visible;display:inline;overflow:visible;enable-background:accumulate"
       id="undo"
       width="12"
       height="12"
       x="434"
       y="521.36218"
       inkscape:label="#rect9526-9-3-3-2-0" />
    <path
       inkscape:connector-curvature="0"
       id="path9675"
       d="m 443.3828,523.7303 c -0.40697,0.91343 -0.68816,1.42853 -1.01,1.85014 -0.30488,0.39939 -0.57766,0.62435 -1.0428,0.86001 -0.37396,0.18945 -0.7937,0.30313 -1.16923,0.31665 l -0.18555,0.007 -0.005,-1.03295 c -0.003,-0.56812 -0.0115,-1.03295 -0.0194,-1.03295 -0.0223,0 -3.65711,3.31181 -3.65711,3.33208 0,0.0203 3.63494,3.33207 3.65734,3.33207 0.008,0 0.0145,-0.4614 0.0145,-1.02534 0,-0.94961 0.003,-1.02711 0.0342,-1.04931 0.0188,-0.0136 0.12207,-0.0321 0.22949,-0.0419 1.38803,-0.12748 2.47774,-0.98996 3.06656,-2.427 0.16818,-0.41044 0.30982,-1.00676 0.37389,-1.57413 0.0252,-0.2229 0.0335,-0.4818 0.0346,-1.07958 l 0.002,-0.78636 -0.0795,-0.008 -0.0795,-0.008 -0.16388,0.36782 z"
       style="fill:#252525;fill-opacity:1;stroke:none;stroke-width:0.29999999999999999;stroke-miterlimit:4;stroke-dasharray:none;stroke-linejoin:round" />
    <rect
       style="color:#000000;fill:none;fill-opacity:0.99215686000000003;fill-rule:nonzero;stroke:none;stroke-width:0.50000000000000000;marker:none;visibility:visible;display:inline;overflow:visible;enable-background:accumulate"
       id="redo"
       width="12"
       height="12"
       x="448"
       y="521.36218"
       inkscape:label="#rect9526-9-3-3-2-0-6" />
    <path
       inkscape:connector-curvature="0"
       id="path9675-9"
       d="m 450.6172,530.99478 c 0.40697,-0.91343 0.68816,-1.42853 1.01,-1.85014 0.30488,-0.39939 0.57766,-0.62435 1.0428,-0.86001 0.37396,-0.18945 0.7937,-0.30313 1.16923,-0.31665 l 0.18555,-0.007 0.005,1.03295 c 0.003,0.56812 0.0115,1.03295 0.0194,1.03295 0.0223,0 3.65711,-3.31181 3.65711,-3.33208 0,-0.0203 -3.63494,-3.33207 -3.65734,-3.33207 -0.008,0 -0.0145,0.4614 -0.0145,1.02534 0,0.94961 -0.003,1.02711 -0.0342,1.04931 -0.0188,0.0136 -0.12207,0.0321 -0.22949,0.0419 -1.38803,0.12748 -2.47774,0.98996 -3.06656,2.427 -0.16818,0.41044 -0.30982,1.00676 -0.37389,1.57413 -0.0252,0.2229 -0.0335,0.4818 -0.0346,1.07958 l -0.002,0.78636 0.0795,0.008 0.0795,0.008 0.16388,-0.36782 z"
       style="fill:#252525;fill-opacity:1;stroke:none;stroke-width:0.29999999999999999;stroke-miterlimit:4;stroke-dasharray:none;stroke-linejoin:round" />
    <rect
       style="color:#000000;fill:none;fill-opacity:0.99215686000000003;fill-rule:nonzero;stroke:none;stroke-width:0.50000000000000000;marker:none;visibility:visible;display:inline;overflow:visible;enable-background:accumulate"
       id="gears"
       width="12"
       height="12"
       x="462"
       y="521.36218"
       inkscape:label="#rect9526-9-3-3-2-0-6-9" />
    <g
       id="g10004"
       transform="translate(0.47692494,0.40014068)"
       style="fill:#252525;fill-opacity:1;stroke:none;stroke-width:0.29999999999999999;stroke-miterlimit:4;stroke-dasharray:none;stroke-linejoin:round">
      <path
         inkscape:connector-curvature="0"
         id="path9902-6"
         d="m 468.32729,526.2376 c 0.009,-0.025 0.0172,-0.0566 0.0169,-0.086 -6.8e-4,-0.1234 -0.0529,-0.19215 -0.41854,-0.57179 -0.0544,-0.0565 -0.059,-0.0642 -0.0313,-0.16402 l 0.0277,-0.10347 0.29646,-0.0701 c 0.38283,-0.0953 0.49189,-0.17118 0.5038,-0.32792 0.0125,-0.16468 -0.11928,-0.25073 -0.51091,-0.36356 l -0.25594,-0.0736 -0.0234,-0.0988 c -0.0139,-0.0559 -0.0244,-0.11662 -0.016,-0.1304 0.009,-0.0137 0.10377,-0.10274 0.20659,-0.19795 0.21032,-0.19485 0.28662,-0.29539 0.29352,-0.39744 0.009,-0.12621 -0.0989,-0.2453 -0.23956,-0.25637 -0.0372,-0.003 -0.20954,0.0218 -0.37372,0.0586 l -0.29646,0.0701 -0.0711,-0.0801 c -0.039,-0.0411 -0.0697,-0.0741 -0.0711,-0.0801 -0.001,-0.005 0.0351,-0.13388 0.0811,-0.28751 0.11222,-0.37512 0.1065,-0.50007 -0.0348,-0.58806 -0.1266,-0.0787 -0.28263,-0.0243 -0.48073,0.17337 -0.0567,0.0566 -0.13639,0.14121 -0.18706,0.1859 -0.0875,0.0773 -0.0942,0.0756 -0.16608,0.0542 -0.0415,-0.0124 -0.0874,-0.0247 -0.10346,-0.0277 -0.019,-0.003 -0.0621,-0.11319 -0.11042,-0.30929 -0.0796,-0.32343 -0.11321,-0.39534 -0.20368,-0.45121 -0.18965,-0.11707 -0.33493,0.003 -0.4373,0.3569 -0.0269,0.0933 -0.0661,0.22028 -0.0844,0.2734 l -0.0311,0.0893 -0.11292,0.0267 -0.10421,0.0321 -0.1805,-0.19581 c -0.23739,-0.25263 -0.25836,-0.27336 -0.34096,-0.30691 -0.0875,-0.0356 -0.20785,-0.003 -0.26821,0.0635 -0.0832,0.0914 -0.0901,0.17461 -0.0135,0.51005 l 0.0735,0.31057 -0.0714,0.0765 c -0.0885,0.0908 -0.0716,0.0994 -0.41866,-0.005 -0.27562,-0.0832 -0.39444,-0.10076 -0.47976,-0.043 -0.0661,0.0447 -0.10987,0.14525 -0.10311,0.22567 0.008,0.0947 0.08,0.1936 0.27296,0.39754 0.0994,0.10505 0.18318,0.20684 0.18717,0.22405 0.004,0.0171 -0.01,0.0688 -0.0244,0.11754 l -0.0223,0.0947 -0.30519,0.0648 c -0.38757,0.0942 -0.48004,0.16306 -0.48095,0.32996 -4.6e-4,0.0842 0.0529,0.16525 0.14148,0.21995 0.0605,0.0374 0.091,0.0462 0.43793,0.1498 l 0.1787,0.0621 0.0234,0.0988 c 0.0337,0.11581 0.0447,0.10156 -0.21553,0.34915 -0.26876,0.25581 -0.3205,0.38397 -0.2178,0.52857 0.0834,0.11748 0.1892,0.12957 0.56241,0.0458 l 0.29646,-0.0701 0.0503,0.0552 c 0.0937,0.0822 0.10106,0.12016 0.0217,0.37501 -0.0397,0.12745 -0.0808,0.26074 -0.0864,0.29625 -0.0369,0.23296 0.11357,0.38972 0.31606,0.3277 0.0826,-0.0254 0.2121,-0.12922 0.42653,-0.33944 0.11512,-0.11289 0.15781,-0.1234 0.26487,-0.0776 l 0.0893,0.0311 0.0735,0.31058 c 0.0862,0.34843 0.12633,0.42231 0.24932,0.45531 0.0914,0.0246 0.16765,-2.9e-4 0.23665,-0.0709 0.0668,-0.0684 0.098,-0.13665 0.19216,-0.44797 l 0.0628,-0.23847 0.0847,-0.02 c 0.0436,-0.0115 0.0944,-0.0277 0.11295,-0.0267 0.0217,10e-4 0.10611,0.0815 0.22954,0.214 0.22352,0.23998 0.30968,0.30002 0.42025,0.29562 0.1384,-0.005 0.22267,-0.0954 0.23353,-0.2416 0.003,-0.0433 -0.0222,-0.19296 -0.0573,-0.33676 -0.0351,-0.14381 -0.0658,-0.28434 -0.0648,-0.30518 0.002,-0.0411 0.1044,-0.14142 0.15677,-0.15637 0.0161,-0.005 0.0985,0.0141 0.18071,0.0392 0.35131,0.10762 0.4234,0.12461 0.5247,0.10692 0.0952,-0.0167 0.16084,-0.074 0.18837,-0.14895 z m -1.21996,-0.77721 c -0.0544,0.0959 -0.12286,0.18737 -0.20402,0.27186 -0.35704,0.37396 -0.97252,0.50578 -1.42711,0.30042 -0.40126,-0.1813 -0.64786,-0.45825 -0.75281,-0.85048 -0.0799,-0.29842 -0.0819,-0.50963 0.005,-0.76877 0.14379,-0.43166 0.4475,-0.72103 0.89562,-0.8455 0.38902,-0.10798 0.74768,-0.0371 1.09175,0.20381 0.26625,0.18641 0.41759,0.41255 0.50097,0.73117 0.0896,0.34262 0.0537,0.66942 -0.10886,0.95747 z"
         style="fill:#252525;fill-opacity:1;stroke:none;stroke-width:0.29999999999999999;stroke-miterlimit:4;stroke-dasharray:none;stroke-linejoin:round" />
      <path
         inkscape:connector-curvature="0"
         id="path9902-6-1"
         d="m 471.43647,530.50635 c 0.009,-0.025 0.0172,-0.0566 0.0169,-0.086 -6.8e-4,-0.1234 -0.0529,-0.19215 -0.41854,-0.57179 -0.0544,-0.0565 -0.059,-0.0642 -0.0313,-0.16402 l 0.0277,-0.10347 0.29646,-0.0701 c 0.38283,-0.0953 0.49189,-0.17118 0.5038,-0.32792 0.0125,-0.16468 -0.11928,-0.25073 -0.51091,-0.36356 l -0.25594,-0.0736 -0.0234,-0.0988 c -0.0139,-0.0559 -0.0244,-0.11662 -0.016,-0.1304 0.009,-0.0137 0.10377,-0.10274 0.20659,-0.19795 0.21032,-0.19485 0.28662,-0.29539 0.29352,-0.39744 0.009,-0.12621 -0.0989,-0.2453 -0.23956,-0.25637 -0.0372,-0.003 -0.20954,0.0218 -0.37372,0.0586 l -0.29646,0.0701 -0.0711,-0.0801 c -0.039,-0.0411 -0.0697,-0.0741 -0.0711,-0.0801 -10e-4,-0.005 0.0351,-0.13388 0.0811,-0.28751 0.11222,-0.37512 0.1065,-0.50007 -0.0348,-0.58806 -0.1266,-0.0787 -0.28263,-0.0243 -0.48073,0.17337 -0.0567,0.0566 -0.13639,0.14121 -0.18706,0.1859 -0.0875,0.0773 -0.0942,0.0756 -0.16608,0.0542 -0.0415,-0.0124 -0.0874,-0.0247 -0.10346,-0.0277 -0.019,-0.003 -0.0621,-0.11319 -0.11042,-0.30929 -0.0796,-0.32343 -0.11321,-0.39534 -0.20368,-0.45121 -0.18965,-0.11707 -0.33493,0.003 -0.4373,0.3569 -0.0269,0.0933 -0.0661,0.22028 -0.0844,0.2734 l -0.0311,0.0893 -0.11292,0.0267 -0.10421,0.0321 -0.1805,-0.19581 c -0.23739,-0.25263 -0.25836,-0.27336 -0.34096,-0.30691 -0.0875,-0.0356 -0.20785,-0.003 -0.26821,0.0635 -0.0832,0.0914 -0.0901,0.17461 -0.0135,0.51005 l 0.0735,0.31057 -0.0714,0.0765 c -0.0885,0.0908 -0.0716,0.0994 -0.41866,-0.005 -0.27562,-0.0832 -0.39444,-0.10076 -0.47976,-0.043 -0.0661,0.0447 -0.10987,0.14525 -0.10311,0.22567 0.008,0.0947 0.08,0.1936 0.27296,0.39754 0.0994,0.10505 0.18318,0.20684 0.18717,0.22405 0.004,0.0171 -0.01,0.0688 -0.0244,0.11754 l -0.0223,0.0947 -0.30519,0.0648 c -0.38757,0.0942 -0.48004,0.16306 -0.48095,0.32996 -4.6e-4,0.0842 0.0529,0.16525 0.14148,0.21995 0.0605,0.0374 0.091,0.0462 0.43793,0.1498 l 0.1787,0.0621 0.0234,0.0988 c 0.0337,0.11581 0.0447,0.10156 -0.21553,0.34915 -0.26876,0.25581 -0.3205,0.38397 -0.2178,0.52857 0.0834,0.11748 0.1892,0.12957 0.56241,0.0458 l 0.29646,-0.0701 0.0503,0.0552 c 0.0937,0.0822 0.10106,0.12016 0.0217,0.37501 -0.0397,0.12745 -0.0808,0.26074 -0.0864,0.29625 -0.0369,0.23296 0.11357,0.38972 0.31606,0.3277 0.0826,-0.0254 0.2121,-0.12922 0.42653,-0.33944 0.11512,-0.11289 0.15781,-0.1234 0.26487,-0.0776 l 0.0893,0.0311 0.0735,0.31058 c 0.0862,0.34843 0.12633,0.42231 0.24932,0.45531 0.0914,0.0246 0.16765,-2.9e-4 0.23665,-0.0709 0.0668,-0.0684 0.098,-0.13665 0.19216,-0.44797 l 0.0628,-0.23847 0.0847,-0.02 c 0.0436,-0.0115 0.0944,-0.0277 0.11295,-0.0267 0.0217,10e-4 0.10611,0.0815 0.22954,0.214 0.22352,0.23998 0.30968,0.30002 0.42025,0.29562 0.1384,-0.005 0.22267,-0.0954 0.23353,-0.2416 0.003,-0.0433 -0.0222,-0.19296 -0.0573,-0.33676 -0.0351,-0.14381 -0.0658,-0.28434 -0.0648,-0.30518 0.002,-0.0411 0.1044,-0.14142 0.15677,-0.15637 0.0161,-0.005 0.0985,0.0141 0.18071,0.0392 0.35131,0.10762 0.4234,0.12461 0.5247,0.10692 0.0952,-0.0167 0.16084,-0.074 0.18837,-0.14895 z m -1.21996,-0.77721 c -0.0544,0.0959 -0.12286,0.18737 -0.20402,0.27186 -0.35704,0.37396 -0.97252,0.50578 -1.42711,0.30042 -0.40126,-0.1813 -0.64786,-0.45825 -0.75281,-0.85048 -0.0799,-0.29842 -0.0819,-0.50963 0.005,-0.76877 0.14379,-0.43166 0.4475,-0.72103 0.89562,-0.8455 0.38902,-0.10798 0.74768,-0.0371 1.09175,0.20381 0.26625,0.18641 0.41759,0.41255 0.50097,0.73117 0.0896,0.34262 0.0537,0.66942 -0.10886,0.95747 z"
         style="fill:#252525;fill-opacity:1;stroke:none;stroke-width:0.29999999999999999;stroke-miterlimit:4;stroke-dasharray:none;stroke-linejoin:round" />
    </g>
  </g>
</svg>
